<svg id="call-calling" xmlns="http://www.w3.org/2000/svg" width="20" height="20" viewBox="0 0 20 20">
  <g id="call-calling-2" data-name="call-calling" transform="translate(2 2)">
    <path id="Vector" d="M15.97,13.064a2.037,2.037,0,0,1-.2.872,3.3,3.3,0,0,1-.544.816,3.605,3.605,0,0,1-1.312.944,4.015,4.015,0,0,1-1.559.3,6.662,6.662,0,0,1-2.607-.584A14.045,14.045,0,0,1,7,13.832a22.994,22.994,0,0,1-2.623-2.24A22.729,22.729,0,0,1,2.143,8.976,14.264,14.264,0,0,1,.576,6.248,6.74,6.74,0,0,1,0,3.632,4.14,4.14,0,0,1,.288,2.088,3.682,3.682,0,0,1,1.208.752,2.343,2.343,0,0,1,2.871,0a1.5,1.5,0,0,1,.648.144,1.3,1.3,0,0,1,.536.448L5.91,3.208a2.738,2.738,0,0,1,.32.56,1.265,1.265,0,0,1,.112.488,1.086,1.086,0,0,1-.168.568,2.721,2.721,0,0,1-.448.568l-.608.632a.428.428,0,0,0-.128.32.727.727,0,0,0,.024.184c.024.064.048.112.064.16a6.638,6.638,0,0,0,.744,1.024c.36.416.744.84,1.16,1.264.432.424.848.816,1.272,1.176a6.138,6.138,0,0,0,1.032.736c.04.016.088.04.144.064a.552.552,0,0,0,.2.032.44.44,0,0,0,.328-.136l.608-.6A2.454,2.454,0,0,1,11.14,9.8a1.065,1.065,0,0,1,.568-.168,1.276,1.276,0,0,1,.488.1,3.093,3.093,0,0,1,.56.312l2.647,1.88a1.213,1.213,0,0,1,.44.512A1.642,1.642,0,0,1,15.97,13.064Z" fill="none" stroke="#e00800" stroke-width="1.6"/>
    <path id="Vector-2" data-name="Vector" d="M3.5,3.5A3.965,3.965,0,0,0,2.33,1.23,3.416,3.416,0,0,0,0,0" transform="translate(9.848 2.652)" fill="none" stroke="#e00800" stroke-linecap="round" stroke-linejoin="round" stroke-width="1.6"/>
    <path id="Vector-3" data-name="Vector" d="M7,7A7,7,0,0,0,0,0" transform="translate(9)" fill="none" stroke="#e00800" stroke-linecap="round" stroke-linejoin="round" stroke-width="1.6"/>
  </g>
  <path id="Vector-4" data-name="Vector" d="M0,0H20V20H0Z" fill="none" opacity="0"/>
</svg>
